<svg id="svg2" xmlns="http://www.w3.org/2000/svg" viewBox="0 0 1280 640"><defs><style>.cls-1,.cls-2,.cls-3{isolation:isolate;}.cls-2{font-size:72px;font-family:MerriweatherSans-Bold, Merriweather Sans;font-weight:700;}.cls-3{font-size:36px;font-family:MerriweatherSans-Regular, Merriweather Sans;}.cls-4{fill:#e03031;}.cls-5{fill:#fdd11a;}.cls-6{fill:#4aac4a;}.cls-7{fill:none;}.cls-8{fill:#fff;}.cls-9{fill:#1b8ccc;}</style></defs><g id="text3374" class="cls-1"><text class="cls-2" transform="translate(375.34 451)">Web Scrobbler</text></g><g id="text3382" class="cls-1"><text class="cls-3" transform="translate(338.01 514) scale(0.99 1)">Scrobble music all around the web!</text></g><path class="cls-4" d="M735.62,167.58H640A67.47,67.47,0,0,0,580.63,267l-46.84-81.13a117,117,0,0,1,201.83-18.3Z"/><path class="cls-5" d="M757,235A117,117,0,0,1,650.59,351.52l46.92-81.3.16-.26A67.45,67.45,0,0,0,640,167.58h95.62A116.37,116.37,0,0,1,757,235Z"/><path class="cls-6" d="M697.51,270.22l-46.92,81.3q-5.24.48-10.59.48A117,117,0,0,1,533.79,185.88L580.63,267l.08.14a67.46,67.46,0,0,0,116.8,3.07Z"/><path class="cls-7" d="M707.42,235a67.19,67.19,0,0,1-9.75,35l-.16.26a67.46,67.46,0,0,1-116.8-3.07l-.08-.14a67.43,67.43,0,1,1,126.79-32Z"/><line class="cls-7" x1="581.62" y1="268.71" x2="580.71" y2="267.15"/><line class="cls-7" x1="698.38" y1="268.71" x2="697.67" y2="269.96"/><circle class="cls-8" cx="640" cy="235" r="93.2"/><circle class="cls-9" cx="640" cy="235" r="87.25"/><path id="path4140" class="cls-8" d="M674.44,270.36c-26.63,0-34.44-12.86-38.57-25.26L631.27,230c-3.67-11-7.8-20.67-22.5-20.67-9.64,0-19.74,6.89-19.74,26.64,0,14.69,7.8,24.8,19.28,24.8a27.72,27.72,0,0,0,18.83-7.81l3.68,10.56c-2.3,1.84-10.11,6.89-23.43,6.89-20.66,0-31.68-11.94-31.68-34,0-23.42,11.48-36.28,32.6-36.28,19.75,0,28.93,6.89,35.36,25.72L648.73,241c3.21,9.18,8.72,19.75,26.17,19.75,7.35,0,17-.92,17-9.19,0-5.51-3.67-8.72-11-10.56l-10.1-2.3c-11.48-2.75-16.53-8.26-16.53-18.37,0-17.45,16.07-20.2,25.25-20.2,15.16,0,23,5.51,24.34,16.53L691.43,218c-.91-6-5-9.19-12.85-9.19-7.35,0-11.94,3.68-11.94,9.65,0,5.51,2.75,8.26,9.64,10.1l9.64,2.3c12.86,3.21,18.83,9.18,18.83,20.2C704.29,263.47,694.19,270.36,674.44,270.36Z"/></svg>